<?xml version="1.0" encoding="UTF-8" standalone="no"?>
<!-- Created with Inkscape (http://www.inkscape.org/) -->

<svg
   xmlns:dc="http://purl.org/dc/elements/1.1/"
   xmlns:cc="http://creativecommons.org/ns#"
   xmlns:rdf="http://www.w3.org/1999/02/22-rdf-syntax-ns#"
   xmlns:svg="http://www.w3.org/2000/svg"
   xmlns="http://www.w3.org/2000/svg"
   xmlns:sodipodi="http://sodipodi.sourceforge.net/DTD/sodipodi-0.dtd"
   xmlns:inkscape="http://www.inkscape.org/namespaces/inkscape"
   id="svg2"
   version="1.1"
   inkscape:version="0.47 r22583"
   width="500"
   height="500"
   sodipodi:docname="Emblem template (500 x 500).svg">
  <metadata
     id="metadata8">
    <rdf:RDF>
      <cc:Work
         rdf:about="">
        <dc:format>image/svg+xml</dc:format>
        <dc:type
           rdf:resource="http://purl.org/dc/dcmitype/StillImage" />
        <dc:title />
      </cc:Work>
    </rdf:RDF>
  </metadata>
  <defs
     id="defs6">
    <inkscape:perspective
       sodipodi:type="inkscape:persp3d"
       inkscape:vp_x="0 : 0.5 : 1"
       inkscape:vp_y="0 : 1000 : 0"
       inkscape:vp_z="1 : 0.5 : 1"
       inkscape:persp3d-origin="0.5 : 0.33333333 : 1"
       id="perspective10" />
    <inkscape:perspective
       id="perspective3576"
       inkscape:persp3d-origin="0.5 : 0.33333333 : 1"
       inkscape:vp_z="1 : 0.5 : 1"
       inkscape:vp_y="0 : 1000 : 0"
       inkscape:vp_x="0 : 0.5 : 1"
       sodipodi:type="inkscape:persp3d" />
    <inkscape:perspective
       id="perspective6134"
       inkscape:persp3d-origin="0.5 : 0.33333333 : 1"
       inkscape:vp_z="1 : 0.5 : 1"
       inkscape:vp_y="0 : 1000 : 0"
       inkscape:vp_x="0 : 0.5 : 1"
       sodipodi:type="inkscape:persp3d" />
  </defs>
  <sodipodi:namedview
     pagecolor="#ffffff"
     bordercolor="#666666"
     borderopacity="1"
     objecttolerance="10"
     gridtolerance="10"
     guidetolerance="10"
     inkscape:pageopacity="0"
     inkscape:pageshadow="2"
     inkscape:window-width="769"
     inkscape:window-height="662"
     id="namedview4"
     showgrid="false"
     inkscape:zoom="0.75"
     inkscape:cx="256.37288"
     inkscape:cy="262.68217"
     inkscape:window-x="241"
     inkscape:window-y="41"
     inkscape:window-maximized="0"
     inkscape:current-layer="svg2" />
  <g
     style="display:inline"
     transform="matrix(-28.861768,0,0,25.728803,23127.238,-4662.2076)"
     id="g14985">
    <path
       sodipodi:type="arc"
       style="fill:#ffd42a;fill-opacity:1;fill-rule:evenodd;stroke:#aa8800;stroke-width:0.75;stroke-linecap:butt;stroke-linejoin:miter;stroke-miterlimit:4;stroke-opacity:1;stroke-dasharray:none;stroke-dashoffset:0;marker:none;visibility:visible;display:inline;overflow:visible;enable-background:accumulate"
       id="path14987"
       sodipodi:cx="73.430763"
       sodipodi:cy="324.9075"
       sodipodi:rx="3.5190461"
       sodipodi:ry="5.8650765"
       d="m 76.949809,324.9075 c 0,3.23919 -1.57553,5.86508 -3.519046,5.86508 -1.943515,0 -3.519046,-2.62589 -3.519046,-5.86508 0,-3.23919 1.575531,-5.86508 3.519046,-5.86508 1.943516,0 3.519046,2.62589 3.519046,5.86508 z"
       transform="translate(719.21777,-130.53051)" />
    <g
       style="fill:#ffcc00;stroke:#aa8800;stroke-width:0.78280699;stroke-miterlimit:4;stroke-dasharray:none"
       id="g14989"
       transform="matrix(0.9139703,0,0,1.0043406,186.27272,17.503904)">
      <g
         transform="translate(32.839361,-44.206827)"
         style="fill:#ffcc00;fill-opacity:1;stroke:#aa8800;stroke-width:0.78280699;stroke-miterlimit:4;stroke-dasharray:none"
         id="g14991">
        <path
           style="fill:#ffd42a;fill-opacity:1;fill-rule:evenodd;stroke:#aa8800;stroke-width:0.78280699;stroke-linecap:butt;stroke-linejoin:miter;stroke-miterlimit:4;stroke-opacity:1;stroke-dasharray:none"
           d="m 628.41159,213.84641 -3.69278,0.71015 -1.63334,3.26668 -1.56233,0.85218 2.20146,0 1.70436,-3.19567 3.19568,-0.92319 -0.21305,-0.71015 z"
           id="path14993" />
        <path
           style="fill:#ffd42a;fill-opacity:1;fill-rule:evenodd;stroke:#aa8800;stroke-width:0.78280699;stroke-linecap:butt;stroke-linejoin:miter;stroke-miterlimit:4;stroke-opacity:1;stroke-dasharray:none"
           d="m 632.81453,213.84641 3.69278,0.71015 1.63334,3.26668 1.56233,0.85218 -2.20146,0 -1.70436,-3.19567 -3.19568,-0.92319 0.21305,-0.71015 z"
           id="path14995" />
      </g>
      <g
         style="fill:#ffcc00;fill-opacity:1;stroke:#aa8800;stroke-width:0.78280699;stroke-miterlimit:4;stroke-dasharray:none"
         transform="translate(32.732841,-44.206827)"
         id="g14997">
        <path
           style="fill:#ffd42a;fill-opacity:1;fill-rule:evenodd;stroke:#aa8800;stroke-width:0.78280699;stroke-linecap:butt;stroke-linejoin:miter;stroke-miterlimit:4;stroke-opacity:1;stroke-dasharray:none"
           d="m 629.9029,213.34929 -3.69277,-0.71015 -1.63334,-3.26668 -1.56234,-0.85218 2.20146,0 1.70436,3.19567 3.19568,0.92319 -0.21305,0.71015 z"
           id="path14999" />
        <path
           style="fill:#ffd42a;fill-opacity:1;fill-rule:evenodd;stroke:#aa8800;stroke-width:0.78280699;stroke-linecap:butt;stroke-linejoin:miter;stroke-miterlimit:4;stroke-opacity:1;stroke-dasharray:none"
           d="m 631.53626,213.3493 3.69278,-0.71015 1.63334,-3.26668 1.56233,-0.85218 -2.20146,0 -1.70436,3.19567 -3.19567,0.92319 0.21304,0.71015 z"
           id="path15001" />
      </g>
    </g>
    <g
       style="fill:#ffcc00;stroke:#aa8800;stroke-width:0.75;stroke-miterlimit:4;stroke-dasharray:none"
       id="g15003"
       transform="translate(129.64853,17.511907)">
      <g
         style="fill:#ffcc00;stroke:#aa8800;stroke-width:0.75;stroke-miterlimit:4;stroke-dasharray:none"
         transform="translate(32.582926,-43.776631)"
         id="g15005">
        <path
           sodipodi:nodetypes="csssss"
           id="path15007"
           d="m 74.207179,329.75195 c -0.187874,-0.43214 -0.939636,-2.53609 -0.548688,-4.61947 0.510952,-2.7229 2.29724,-5.5118 2.992037,-5.5118 0.463146,0 1.896678,5.07982 2.317187,8.171 0.06812,0.50077 -1.623083,2.11723 -2.705116,2.55224 -1.082033,0.43501 -1.85681,-0.13514 -2.05542,-0.59197 z"
           style="fill:#ffdd55;fill-opacity:1;fill-rule:evenodd;stroke:#aa8800;stroke-width:0.75;stroke-linecap:butt;stroke-linejoin:miter;stroke-miterlimit:4;stroke-opacity:1;stroke-dasharray:none;stroke-dashoffset:0;marker:none;visibility:visible;display:inline;overflow:visible;enable-background:accumulate"
           transform="matrix(-0.8985839,-0.4388018,-0.4388018,0.8985839,838.7942,-38.970919)" />
      </g>
      <path
         sodipodi:nodetypes="csssss"
         id="path15009"
         d="m 666,181 c -0.35845,-0.30587 -1.95719,-1.86657 -2.52008,-3.91021 -0.73568,-2.67096 -0.35432,-5.96085 0.27001,-6.26573 0.41618,-0.20323 3.93336,3.73238 5.66764,6.32554 0.28095,0.4201 -0.52944,2.61473 -1.31085,3.48042 -0.78141,0.86569 -1.7278,0.69333 -2.10672,0.36998 z"
         style="fill:#ffdd55;fill-opacity:1;fill-rule:evenodd;stroke:#aa8800;stroke-width:0.75;stroke-linecap:butt;stroke-linejoin:miter;stroke-miterlimit:4;stroke-opacity:1;stroke-dasharray:none;stroke-dashoffset:0;marker:none;visibility:visible;display:inline;overflow:visible;enable-background:accumulate" />
    </g>
    <g
       style="fill:#ffcc00;stroke:#aa8800;stroke-width:0.75;stroke-miterlimit:4;stroke-dasharray:none"
       id="g15011"
       transform="translate(162.05693,-26.985825)">
      <path
         transform="translate(557.02007,-103.83913)"
         d="m 76.19908,317.25943 c 0,1.71029 -1.176396,3.09676 -2.627554,3.09676 -1.451159,0 -2.627555,-1.38647 -2.627555,-3.09676 0,-1.71029 1.176396,-3.09676 2.627555,-3.09676 1.451158,0 2.627554,1.38647 2.627554,3.09676 z"
         sodipodi:ry="3.0967605"
         sodipodi:rx="2.6275544"
         sodipodi:cy="317.25943"
         sodipodi:cx="73.571526"
         id="path15013"
         style="fill:#ffdd55;fill-opacity:1;fill-rule:evenodd;stroke:#aa8800;stroke-width:0.75;stroke-linecap:butt;stroke-linejoin:miter;stroke-miterlimit:4;stroke-opacity:1;stroke-dasharray:none;stroke-dashoffset:0;marker:none;visibility:visible;display:inline;overflow:visible;enable-background:accumulate"
         sodipodi:type="arc" />
      <path
         transform="translate(557.25467,-103.69709)"
         d="m 75.823714,313.41196 c 0,0.62192 -1.113375,1.12609 -2.486792,1.12609 -1.373418,0 -2.486793,-0.50417 -2.486793,-1.12609 0,-0.62193 1.113375,-1.1261 2.486793,-1.1261 1.373417,0 2.486792,0.50417 2.486792,1.1261 z"
         sodipodi:ry="1.1260947"
         sodipodi:rx="2.4867926"
         sodipodi:cy="313.41196"
         sodipodi:cx="73.336922"
         id="path15015"
         style="fill:#ffdd55;fill-opacity:1;fill-rule:evenodd;stroke:#aa8800;stroke-width:0.75;stroke-linecap:butt;stroke-linejoin:miter;stroke-miterlimit:4;stroke-opacity:1;stroke-dasharray:none;stroke-dashoffset:0;marker:none;visibility:visible;display:inline;overflow:visible;enable-background:accumulate"
         sodipodi:type="arc" />
      <g
         style="fill:#ffcc00;stroke:#aa8800;stroke-width:0.75;stroke-miterlimit:4;stroke-dasharray:none"
         transform="translate(0.08507912,0)"
         id="g15017">
        <path
           sodipodi:type="arc"
           style="fill:#d4aa00;fill-opacity:1;fill-rule:evenodd;stroke:#aa8800;stroke-width:0.75;stroke-linecap:butt;stroke-linejoin:miter;stroke-miterlimit:4;stroke-opacity:1;stroke-dasharray:none;stroke-dashoffset:0;marker:none;visibility:visible;display:inline;overflow:visible;enable-background:accumulate"
           id="path15019"
           sodipodi:cx="628.58911"
           sodipodi:cy="209.69203"
           sodipodi:rx="0.60362738"
           sodipodi:ry="0.60362738"
           d="m 629.19274,209.69203 c 0,0.33338 -0.27025,0.60363 -0.60363,0.60363 -0.33337,0 -0.60363,-0.27025 -0.60363,-0.60363 0,-0.33337 0.27026,-0.60363 0.60363,-0.60363 0.33338,0 0.60363,0.27026 0.60363,0.60363 z" />
        <path
           sodipodi:type="arc"
           style="fill:#d4aa00;fill-opacity:1;fill-rule:evenodd;stroke:#aa8800;stroke-width:0.75;stroke-linecap:butt;stroke-linejoin:miter;stroke-miterlimit:4;stroke-opacity:1;stroke-dasharray:none;stroke-dashoffset:0;marker:none;visibility:visible;display:inline;overflow:visible;enable-background:accumulate"
           id="path15021"
           sodipodi:cx="628.58911"
           sodipodi:cy="209.69203"
           sodipodi:rx="0.60362738"
           sodipodi:ry="0.60362738"
           d="m 629.19274,209.69203 c 0,0.33338 -0.27025,0.60363 -0.60363,0.60363 -0.33337,0 -0.60363,-0.27025 -0.60363,-0.60363 0,-0.33337 0.27026,-0.60363 0.60363,-0.60363 0.33338,0 0.60363,0.27026 0.60363,0.60363 z"
           transform="translate(3.8348091,0)" />
      </g>
    </g>
  </g>
</svg>
